<svg width="45" height="45" viewBox="0 0 45 45" fill="none" xmlns="http://www.w3.org/2000/svg">
<circle cx="22.5" cy="22.5" r="22.5" fill="#F5F6FA"/>
<path d="M25.4583 28.625V29.6667C25.4583 31.3926 24.0592 32.7917 22.3333 32.7917C20.6074 32.7917 19.2083 31.3926 19.2083 29.6667V28.6251M25.4583 28.625L19.2083 28.6251M25.4583 28.625H29.625C30.2003 28.625 30.6667 28.1586 30.6667 27.5833V26.973C30.6667 26.6967 30.5568 26.4319 30.3615 26.2365L29.8295 25.7045C29.6985 25.5735 29.625 25.3958 29.625 25.2106V21.3333C29.625 21.1495 29.6184 20.9672 29.6047 20.7876M19.2083 28.6251L15.0417 28.6251C14.4664 28.6251 14 28.1584 14 27.5831V26.973C14 26.6967 14.1098 26.4322 14.3052 26.2368L14.8372 25.704C14.9681 25.5731 15.0417 25.3961 15.0417 25.2109V21.3333C15.0417 17.3063 18.3063 14.0417 22.3333 14.0417C23.0746 14.0417 23.79 14.1523 24.464 14.3579M29.6047 20.7876C30.8613 20.0701 31.7083 18.7173 31.7083 17.1667C31.7083 14.8655 29.8429 13 27.5417 13C26.3227 13 25.2259 13.5235 24.464 14.3579M29.6047 20.7876C28.9964 21.1349 28.2922 21.3333 27.5417 21.3333C25.2405 21.3333 23.375 19.4679 23.375 17.1667C23.375 16.0845 23.7876 15.0987 24.464 14.3579M24.464 14.3579L24.4655 14.3583" stroke="#1D1E20" stroke-linecap="round" stroke-linejoin="round"/>
</svg>
