<svg width="21" height="21" viewBox="0 0 21 21" fill="none" xmlns="http://www.w3.org/2000/svg">
<path d="M1.75 10.5C1.75 15.3326 5.66738 19.25 10.5 19.25C15.3326 19.25 19.25 15.3326 19.25 10.5C19.25 5.66738 15.3326 1.75 10.5 1.75C5.66738 1.75 1.75 5.66738 1.75 10.5Z" stroke="white" stroke-width="1.1" stroke-linecap="round" stroke-linejoin="round"/>
<path d="M11.375 1.79376C11.375 1.79376 14 5.25001 14 10.5C14 15.75 11.375 19.2063 11.375 19.2063M9.62499 19.2063C9.62499 19.2063 6.99999 15.75 6.99999 10.5C6.99999 5.25001 9.62499 1.79376 9.62499 1.79376M2.30124 13.5625H18.6987M2.30124 7.43751H18.6987" stroke="white" stroke-width="1.1" stroke-linecap="round" stroke-linejoin="round"/>
</svg>
